<?xml version="1.0" encoding="UTF-8" standalone="no"?>
<!-- Created with Inkscape (http://www.inkscape.org/) -->

<svg
   xmlns:dc="http://purl.org/dc/elements/1.1/"
   xmlns:cc="http://creativecommons.org/ns#"
   xmlns:rdf="http://www.w3.org/1999/02/22-rdf-syntax-ns#"
   xmlns:svg="http://www.w3.org/2000/svg"
   xmlns="http://www.w3.org/2000/svg"
   xmlns:sodipodi="http://sodipodi.sourceforge.net/DTD/sodipodi-0.dtd"
   xmlns:inkscape="http://www.inkscape.org/namespaces/inkscape"
   sodipodi:docname="manly_4.svg"
   inkscape:version="0.91+devel+osxmenu r12922"
   version="1.1"
   id="svg2"
   viewBox="0 0 82.549998 103.71667"
   height="392"
   width="312"
   inkscape:export-filename="/Users/tbeuzen/Documents/Projects/apple_watch_faces/png/manly_4.png"
   inkscape:export-xdpi="96"
   inkscape:export-ydpi="96">
  <sodipodi:namedview
     inkscape:window-maximized="0"
     inkscape:window-y="45"
     inkscape:window-x="809"
     inkscape:window-height="805"
     inkscape:window-width="1209"
     units="px"
     showgrid="false"
     inkscape:current-layer="layer1"
     inkscape:document-units="mm"
     inkscape:cy="227.79352"
     inkscape:cx="109.93886"
     inkscape:zoom="1.4142136"
     inkscape:pageshadow="2"
     inkscape:pageopacity="0.0"
     borderopacity="1.0"
     bordercolor="#666666"
     pagecolor="#ffffff"
     id="base"
     inkscape:showpageshadow="false" />
  <defs
     id="defs4">
    <filter
       id="filter7103"
       style="color-interpolation-filters:sRGB"
       inkscape:label="Light Eraser">
      <feColorMatrix
         id="feColorMatrix7105"
         result="colormatrix"
         values="1 0 0 0 0 0 1 0 0 0 0 0 1 0 0 -10.625 -35.77 -3.605 50 0 " />
      <feComposite
         k4="0"
         k3="0"
         k1="0"
         id="feComposite7107"
         result="composite"
         k2="1"
         operator="arithmetic"
         in2="colormatrix" />
    </filter>
  </defs>
  <metadata
     id="metadata7">
    <rdf:RDF>
      <cc:Work
         rdf:about="">
        <dc:format>image/svg+xml</dc:format>
        <dc:type
           rdf:resource="http://purl.org/dc/dcmitype/StillImage" />
        <dc:title></dc:title>
      </cc:Work>
    </rdf:RDF>
  </metadata>
  <g
     inkscape:label="Layer 1"
     inkscape:groupmode="layer"
     id="layer1"
     transform="translate(0,-193.28332)">
    <rect
       style="fill:#6f0f3b;fill-rule:evenodd;stroke:#000000;stroke-width:0.18734758px;stroke-linecap:butt;stroke-linejoin:miter;stroke-opacity:1;fill-opacity:1"
       id="rect3336"
       width="82.362656"
       height="103.52932"
       x="0.093673795"
       y="193.377" />
    <g
       transform="matrix(0.17294996,0,0,0.17294996,43.177847,177.55508)"
       id="layer1-8"
       inkscape:label="Layer 1"
       style="fill:#e4e5e8;fill-opacity:1">
      <path
         inkscape:connector-curvature="0"
         id="path5068"
         d="m 124.27165,294.4446 c 10.3234,-10.23929 16.22031,-26.09829 14.82261,-39.86361 -1.22163,-12.03128 -6.97206,-21.63521 -16.91933,-28.25739 -7.76333,-5.16826 -16.92544,-8.16032 -29.38655,-9.59672 -4.08634,-0.47103 -7.13765,-0.55321 -15.16942,-0.40855 -10.30738,0.18566 -15.05419,0.60453 -24.97052,2.20347 -2.96527,0.47813 -5.50526,0.85871 -5.64444,0.84573 -1.10302,-0.10287 16.02279,-4.44234 23.41952,-5.93423 6.23346,-1.25726 15.767,-2.66079 22.01208,-3.24062 5.6923,-0.52851 18.53311,-0.52707 23.2833,0.002 20.06757,2.23767 33.53689,10.10952 39.50639,23.08864 8.39347,18.24944 -0.92836,43.43567 -21.24394,57.39801 -2.6454,1.81812 -11.19191,6.31374 -12.01221,6.31865 -0.15188,0.001 0.88425,-1.14929 2.30251,-2.55599 z m -49.6513,-4.85069 c -0.61728,-0.15707 -0.78291,-0.2867 -0.39745,-0.31104 1.246,-0.0787 7.91844,-2.47022 10.50809,-3.7663 10.03579,-5.02275 16.38819,-12.88247 18.43319,-22.80709 0.69436,-3.36981 0.72526,-9.58608 0.0648,-13.03662 -1.05437,-5.50849 -3.340982,-10.75222 -6.58566,-15.10246 -3.35748,-4.50147 -6.83858,-7.39795 -11.67909,-9.71771 -2.94871,-1.41313 -2.69547,-1.50108 1.47416,-0.51195 10.10425,2.39697 17.76855,6.37723 23.01139,11.95041 9.04796,9.61806 9.39122,23.61826 0.88632,36.14965 -6.23716,9.19003 -17.34137,15.87824 -28.48381,17.15618 -3.40133,0.39011 -5.6906,0.38913 -7.23194,-0.003 z m 100.9594,-12.80613 c 3.84679,-4.24195 6.75189,-10.01391 8.64691,-17.17998 0.91486,-3.45958 1.09928,-4.89661 1.25247,-9.75945 0.19986,-6.34418 -0.15366,-9.65814 -1.54478,-14.48118 -5.24561,-18.1867 -21.7494,-30.46113 -46.58246,-34.64497 -7.71948,-1.30056 -11.75884,-1.59325 -21.98577,-1.59308 -13.61812,2.3e-4 -24.6367,1.05085 -40.2166,3.83464 -3.78354,0.67604 -7.43478,1.31267 -8.11388,1.41474 -2.01801,0.30332 9.89808,-3.57129 16.75692,-5.44864 39.25993,-10.74596 73.21426,-10.69118 95.60285,0.15421 12.72577,6.16457 21.07644,15.44746 24.25096,26.95818 0.61957,2.24655 0.74277,3.67057 0.73699,8.51832 -0.006,5.15632 -0.11302,6.21906 -0.93613,9.30912 -1.0331,3.87834 -3.94473,10.23762 -6.25923,13.67073 -5.16087,7.65518 -13.31856,15.21843 -22.02614,20.42111 l -1.4111,0.84313 1.82899,-2.01688 z m -124.41908,-0.51226 -1.94028,-0.14709 2.99861,-0.86787 c 11.02267,-3.19025 18.77123,-10.46857 22.29759,-20.94443 1.07305,-3.18772 1.12872,-3.61842 1.14,-8.81944 0.009,-4.20226 -0.13476,-5.99888 -0.62151,-7.76112 -0.93291,-3.37761 -3.46312,-8.32556 -5.58678,-10.92527 l -1.86432,-2.28221 1.40153,0.84944 c 7.03249,4.26232 12.2722,10.88536 13.96327,17.64971 0.78768,3.15074 0.61998,9.20494 -0.34202,12.34722 -2.44004,7.97021 -8.00565,14.33825 -15.74751,18.01795 -4.88184,2.32034 -10.21114,3.29909 -15.69858,2.88311 z m -24.16524,-26.2307 c -6.00781,-1.687 -12.70302,-6.10569 -16.95719,-11.19137 -5.58013,-6.6708 -9.34558998,-15.63418 -9.85119,-23.44998 L 0,212.51196 0.85486002,215.51057 C 3.11578,223.44123 6.66224,229.8524 11.67889,235.07786 c 2.52093,2.62587 6.12849,5.46192 6.46746,5.08435 0.066,-0.0735 -0.10929,-1.40358 -0.38943,-2.9558 -0.73385,-4.06607 -0.43117,-14.20439 0.53188,-17.81528 2.10655,-7.89839 5.37375,-13.70957 10.97486,-19.52035 1.66288,-1.72513 4.01561,-3.92621 5.22828,-4.89128 l 2.20486,-1.75468 0.008,-2.17448 c 0.009,-2.49683 0.79821,-4.51268 2.32901,-5.94813 1.35459,-1.27022 2.95308,-1.89206 6.11032,-2.37703 5.41054,-0.83109 6.87169,-2.20225 6.81864,-6.3987 l -0.0293,-2.31882 2.70053,0.95515 c 5.36711,1.89828 8.00581,2.25915 16.45884,2.25093 4.78675,-0.005 10.30352,-0.25385 14.39513,-0.65025 6.8894,-0.66744 8.82607,-0.62208 4.39635,0.10297 -1.41005,0.23079 -5.1831,1.05268 -8.38455,1.82642 -20.15746,4.87173 -36.48914,12.71404 -46.44326,22.3016 -4.58225,4.4135 -6.70956,7.19545 -8.96018,11.71748 -4.01023,8.0575 -4.48733,15.90677 -1.53609,25.27148 0.97913,3.1069 3.21668,8.04061 5.05807,11.15283 1.28154,2.16599 1.22631,2.18933 -2.62262,1.10855 z m 191.77321,-18.00451 c -1.09326,-16.34923 -5.94131,-28.10701 -15.54773,-37.70727 -9.0912,-9.08538 -21.08597,-14.32654 -37.58403,-16.4225 -5.51763,-0.70098 -18.36125,-0.79347 -24.8708,-0.17911 -14.31433,1.35096 -32.20555,5.07106 -48.47784,10.07994 -3.47652,1.07013 -6.38127,1.88537 -6.455,1.81165 -0.20919,-0.20919 13.453168,-5.19045 20.88984,-7.61638 18.41207,-6.00623 35.09136,-9.72873 49.91798,-11.14075 8.23162,-0.78394 20.83029,-0.5499 26.98746,0.50134 28.3325,4.83732 41.33951,23.25882 37.02224,52.43362 -0.5451,3.6836 -1.81502,9.24299 -1.88212,8.23946 z M 25.97649,221.5078 c 0.12647,-0.6791 0.68482,-2.43393 1.24078,-3.89962 3.84736,-10.14288 13.99722,-19.77337 28.08852,-26.6512 7.09082,-3.46097 15.45167,-6.23434 20.15717,-6.68632 1.9233,-0.18474 1.86922,-0.15057 -1.90094,1.20134 -8.66647,3.10764 -16.04432,6.80507 -23.45968,11.75689 -10.67714,7.12996 -18.08638,14.52756 -22.76926,22.73349 -1.29484,2.269 -1.54426,2.55313 -1.35659,1.54542 z M 9.12717,183.67238 C 8.33526,180.59215 8.51495,173.53946 9.4703496,170.20269 10.99862,164.86516 14.84812,158.6237 18.17852,156.08355 c 1.38579,-1.05698 1.40153,-1.09434 0.97225,-2.30909 -1.73013,-4.89588 3.87384,-15.81831 11.03609,-21.5099 1.47159,-1.16941 2.73822,-2.12621 2.81475,-2.12621 0.0765,0 -0.67486,1.07156 -1.66976,2.38125 -3.63804,4.78917 -5.75333,10.67872 -5.49264,15.29305 0.17347,3.07037 0.99475,4.76153 2.96135,6.09787 l 1.20386,0.81804 -2.15925,0.73727 c -6.56134,2.24037 -13.20854,8.9609 -16.16432,16.3426 -1.39926,3.49451 -2.2903604,8.62699 -1.9985504,11.51117 0.1227,1.21268 0.15512,2.20486 0.0721,2.20486 -0.0831,0 -0.3653,-0.83343 -0.6271796,-1.85208 z m 209.2499,-7.62781 c 0,-1.51544 -5.05673,-11.01958 -8.85478,-16.6426 -13.9883,-20.70964 -35.32703,-35.78359 -56.16471,-39.67546 -2.5597,-0.47808 -5.28901,-0.99005 -6.06512,-1.13772 -2.39612,-0.45591 6.48528,-0.53024 11.81804,-0.0989 15.93096,1.28856 29.16667,6.83445 39.07785,16.37399 8.11905,7.8146 13.49506,16.60373 17.37496,28.40597 1.70089,5.1739 3.4295,12.58425 3.02896,12.98479 -0.11836,0.11836 -0.2152,0.0238 -0.2152,-0.21007 z M 35.81486,175.46225 c -0.97014,-0.24936 -3.61886,-0.46863 -5.88606,-0.48725 -4.93804,-0.0406 -5.93198,-0.32718 -5.93198,-1.71053 0,-3.16745 4.07404,-4.12551 8.68538,-2.04249 1.84523,0.83353 4.4813,2.96646 5.10385,4.12969 0.39078,0.73018 0.43062,0.72795 -1.97119,0.11058 z m 57.77398,0.29274 c 0.34324,-0.0894 0.81949,-0.0836 1.05833,0.0131 0.23884,0.0966 -0.042,0.16982 -0.62407,0.16263 -0.58208,-0.007 -0.7775,-0.0863 -0.43426,-0.1757 z m 17.15585,-3.59147 c 3.32772,-4.2016 10.24891,-9.33863 16.64304,-12.35277 9.86793,-4.65165 20.45846,-6.83969 32.95749,-6.80914 9.80207,0.024 17.82331,1.40309 26.18396,4.50194 5.79798,2.149 12.72296,6.05714 16.14931,9.11393 l 1.41111,1.25891 -2.82222,-1.27244 c -12.07478,-5.4441 -25.81605,-8.249 -40.36607,-8.2396 -18.6179,0.012 -35.93093,4.7639 -48.47349,13.30443 l -2.80291,1.90858 1.11978,-1.41384 z m -2.25059,-1.63211 c 1.46204,-3.69013 4.18225,-7.34605 8.57916,-11.53029 7.04616,-6.70535 17.68524,-12.26104 28.17183,-14.71122 9.93221,-2.32065 22.42104,-2.42205 32.38621,-0.26294 1.97837,0.42864 1.74787,0.44846 -3.52777,0.30342 -17.69319,-0.48644 -37.79213,5.00848 -51.85825,14.17769 -3.91735,2.55358 -8.82518,6.75957 -11.00103,9.42785 -1.00586,1.23349 -2.16192,2.63958 -2.56903,3.12465 l -0.7402,0.88195 0.55908,-1.41111 z m -60.62188,-9.31555 c 8.58099,-2.35135 14.22309,-7.49779 24.98195,-22.78723 8.81639,-12.529 13.71798,-17.21138 19.91004,-19.01962 3.24681,-0.94814 7.82137,-0.73377 14.66443,0.6872 3.29846,0.68494 7.37539,1.34241 9.05984,1.46106 5.99593,0.42233 10.65673,-1.28604 15.30556,-5.61012 2.92212,-2.71798 2.94262,-2.70097 0.73441,0.60926 -2.19404,3.28901 -5.43422,6.27155 -8.39751,7.72982 -3.60897,1.77601 -6.54723,2.31094 -12.73356,2.31822 -2.86191,0.003 -5.20346,0.0677 -5.20346,0.1429 0,0.0752 0.47994,1.16239 1.06653,2.41591 1.82498,3.8999 2.2063,9.02267 0.89977,12.08759 -0.43154,1.01233 -0.44409,0.98084 -0.28858,-0.72424 0.29171,-3.19856 -1.45678,-8.37462 -3.99875,-11.83748 -1.13555,-1.54693 -1.40082,-1.72145 -2.55971,-1.68404 -2.85343,0.0921 -3.39162,0.37478 -3.62107,1.90182 -0.11635,0.77431 -0.32687,1.82398 -0.46783,2.3326 -0.22252,0.80293 -0.0882,1.02866 1.01966,1.71334 3.05475,1.88795 4.27813,6.63453 2.55152,9.89961 -0.942732,1.78272 -3.17899,3.16089 -5.12897,3.16089 -2.91433,0 -6.16812,-2.79862 -6.63287,-5.70498 -0.11878,-0.74282 -0.28293,-1.35057 -0.36479,-1.35057 -0.56434,0 -2.30415,1.22553 -3.219,2.26749 -1.43138,1.63025 -1.70985,3.21109 -0.96217,5.46213 1.36879,4.12105 5.92175,7.32455 11.02035,7.75401 l 2.74842,0.2315 -1.94028,0.7374 c -4.28229,1.62747 -7.82071,1.315 -13.79435,-1.21816 -4.62496,-1.96124 -6.7769,-2.53437 -9.51582,-2.53437 -3.60786,0 -6.33014,1.00907 -10.23202,3.79272 -5.60213,3.99664 -10.20385,5.92783 -14.95761,6.27723 l -2.47651,0.18202 2.53238,-0.69391 z m -6.24886,-1.42745 c 2.82882,-1.06104 5.47083,-2.93579 8.67569,-6.15621 3.43061,-3.44727 6.02173,-6.77556 11.9735,-15.37996 10.03431,-14.50646 14.34335,-19.25452 20.32845,-22.39961 1.33445,-0.70123 2.42628,-1.20951 2.42628,-1.12949 0,0.08 -0.96361,0.74026 -2.14136,1.4672 -4.54888,2.80774 -8.81157,7.94647 -16.54503,19.94523 -7.50566,11.64535 -10.91776,16.0773 -14.92418,19.38495 -2.88716,2.38361 -7.27269,4.53158 -9.78103,4.79064 l -1.94027,0.20038 1.92795,-0.72313 z m 41.37388,0.30808 c -1.60159,-0.15315 -4.22096,-0.61638 -5.82082,-1.02938 -2.75636,-0.71156 -10.35504,-3.7248 -10.66735,-4.23011 -0.0802,-0.12977 1.87078,0.44633 4.33551,1.28022 6.15302,2.08175 10.10891,2.72101 15.41742,2.49139 9.14664,-0.39565 14.02944,-2.70382 29.28051,-13.84137 7.67298,-5.60342 14.86723,-8.63489 20.46108,-8.62175 l 2.11667,0.005 -2.29306,0.81746 c -4.18238,1.49099 -7.9766,3.6766 -17.70621,10.19944 -12.72204,8.52899 -17.87623,11.13357 -24.51891,12.3902 -3.70798,0.70146 -7.10177,0.87393 -10.60484,0.53894 z m 96.22156,-44.43374 c -8.82059,-5.37729 -25.40766,-10.1415 -42.50965,-12.20981 -7.35011,-0.88892 -24.81211,-0.89829 -31.33846,-0.0168 -10.03384,1.35521 -19.41717,3.9664 -26.07868,7.25718 -1.89032,0.93381 -3.43694,1.65737 -3.43694,1.6079 0,-0.0495 1.46844,-1.20054 3.26319,-2.55795 9.04222,-6.8388 19.57014,-10.733908 32.68389,-12.092345 5.15125,-0.533611 17.96102,-0.221212 22.96672,0.560107 12.47423,1.947028 22.11004,4.911118 32.64379,10.041598 4.69603,2.28721 14.27558,8.1083 14.27558,8.67468 0,0.23961 -0.0131,0.2329 -2.46944,-1.26455 z"
         style="fill:#e4e5e8;stroke-width:0.35277751;fill-opacity:1" />
    </g>
  </g>
</svg>
