<?xml version="1.0" encoding="UTF-8" standalone="no"?>
<!-- Created with Inkscape (http://www.inkscape.org/) -->

<svg
   xmlns:dc="http://purl.org/dc/elements/1.1/"
   xmlns:cc="http://creativecommons.org/ns#"
   xmlns:rdf="http://www.w3.org/1999/02/22-rdf-syntax-ns#"
   xmlns:svg="http://www.w3.org/2000/svg"
   xmlns="http://www.w3.org/2000/svg"
   xmlns:sodipodi="http://sodipodi.sourceforge.net/DTD/sodipodi-0.dtd"
   xmlns:inkscape="http://www.inkscape.org/namespaces/inkscape"
   sodipodi:docname="manly_3.svg"
   inkscape:version="0.91+devel+osxmenu r12922"
   version="1.1"
   id="svg2"
   viewBox="0 0 82.549998 103.71667"
   height="392"
   width="312"
   inkscape:export-filename="/Users/tbeuzen/Documents/Projects/apple_watch_faces/png/manly_3.png"
   inkscape:export-xdpi="600"
   inkscape:export-ydpi="600">
  <sodipodi:namedview
     inkscape:window-maximized="0"
     inkscape:window-y="23"
     inkscape:window-x="809"
     inkscape:window-height="805"
     inkscape:window-width="1209"
     units="px"
     showgrid="false"
     inkscape:current-layer="layer1"
     inkscape:document-units="mm"
     inkscape:cy="147.24539"
     inkscape:cx="120.52719"
     inkscape:zoom="1.224359"
     inkscape:pageshadow="2"
     inkscape:pageopacity="0.0"
     borderopacity="1.0"
     bordercolor="#666666"
     pagecolor="#ffffff"
     id="base"
     inkscape:showpageshadow="false" />
  <defs
     id="defs4">
    <filter
       id="filter7103"
       style="color-interpolation-filters:sRGB"
       inkscape:label="Light Eraser">
      <feColorMatrix
         id="feColorMatrix7105"
         result="colormatrix"
         values="1 0 0 0 0 0 1 0 0 0 0 0 1 0 0 -10.625 -35.77 -3.605 50 0 " />
      <feComposite
         k4="0"
         k3="0"
         k1="0"
         id="feComposite7107"
         result="composite"
         k2="1"
         operator="arithmetic"
         in2="colormatrix" />
    </filter>
  </defs>
  <metadata
     id="metadata7">
    <rdf:RDF>
      <cc:Work
         rdf:about="">
        <dc:format>image/svg+xml</dc:format>
        <dc:type
           rdf:resource="http://purl.org/dc/dcmitype/StillImage" />
        <dc:title />
      </cc:Work>
    </rdf:RDF>
  </metadata>
  <g
     inkscape:label="Layer 1"
     inkscape:groupmode="layer"
     id="layer1"
     transform="translate(0,-193.28332)">
    <rect
       style="fill:#182e48;fill-rule:evenodd;stroke:#182e48;stroke-width:0.18734758px;stroke-linecap:butt;stroke-linejoin:miter;stroke-opacity:1;fill-opacity:1"
       id="rect3336"
       width="82.362656"
       height="103.52932"
       x="0.093673795"
       y="193.377" />
    <rect
       style="fill:#6f0f3b;fill-opacity:1;stroke:none;stroke-width:0.29665589;stroke-opacity:1"
       id="rect5938"
       width="31.75"
       height="31.75"
       x="0"
       y="263.09018"
       ry="6.2412" />
    <rect
       style="fill:#6f0f3b;fill-opacity:1;stroke:none;stroke-width:0.21919762;stroke-opacity:1"
       id="rect6015"
       width="31.75"
       height="10.868593"
       x="0"
       y="263.09018"
       ry="0" />
    <rect
       style="fill:#182e48;fill-opacity:1;stroke:none;stroke-width:0.29665589;stroke-opacity:1"
       id="rect5938-6"
       width="31.75"
       height="31.75"
       x="26.407038"
       y="251.97331"
       ry="6.2412" />
    <rect
       style="fill:#acb1b7;fill-opacity:1;stroke:none;stroke-width:0.27037731;stroke-opacity:1"
       id="rect6015-4"
       width="26.458332"
       height="19.84375"
       x="-1.3877788e-17"
       y="240.6008"
       ry="0" />
    <rect
       style="fill:#e4e5e8;fill-opacity:1;stroke:none;stroke-width:0.27037731;stroke-opacity:1"
       id="rect6015-4-9"
       width="26.458334"
       height="19.84375"
       x="-1.3877788e-17"
       y="218.11121"
       ry="0" />
    <rect
       style="fill:#ffffff;fill-opacity:1;stroke:none;stroke-width:0.27037731;stroke-opacity:1"
       id="rect6015-4-9-4"
       width="26.458334"
       height="19.84375"
       x="0"
       y="195.62163"
       ry="0" />
    <g
       style="clip-rule:evenodd;fill-rule:evenodd"
       transform="matrix(0.12003999,-0.01282215,0.01282215,0.12003999,0.78260783,195.51923)"
       id="g7721">
      <path
         inkscape:connector-curvature="0"
         id="path7725"
         d="m 155.643,89.229 13.738,-9.893 -10.441,0.916 c 9.527,-2.932 15.938,-8.977 19.42,-17.953 -3.666,3.847 -7.145,6.229 -10.627,6.961 4.764,-4.763 7.695,-10.991 8.611,-18.869 -4.764,6.412 -8.244,10.076 -10.26,10.625 9.709,-12.091 11.908,-23.999 6.779,-35.54 -0.367,13.006 -6.779,24.181 -19.053,33.524 -4.031,3.114 -9.16,6.229 -15.207,9.527 l -12.457,6.777 C 114.423,82.632 106.544,92.159 102.332,103.7 98.668,96.74 90.791,88.312 78.7,78.786 L 64.227,67.062 C 58.731,62.116 54.151,57.537 50.487,52.773 40.045,39.766 37.297,25.477 42.426,10.454 31.068,21.812 29.602,37.201 38.58,56.253 29.053,45.811 24.84,33.72 25.755,19.98 19.71,36.101 21.175,49.841 30.518,61.565 23.19,58.085 18.428,51.306 16.229,41.597 13.848,55.703 18.245,66.145 29.602,73.289 23.741,72.74 18.611,70.175 14.397,65.596 c 2.381,12.091 10.258,22.899 23.999,32.608 2.381,9.526 7.511,17.954 14.839,25.281 7.51,7.328 15.389,11.725 24.182,13.373 -6.596,6.962 -16.305,12.092 -29.496,15.205 2.932,6.047 8.795,10.076 17.771,12.092 8.244,1.831 14.84,1.648 19.785,-0.733 l 5.314,-7.327 c 2.014,1.099 4.03,2.016 6.229,2.564 l 3.297,0.55 c 1.283,0.916 2.199,1.465 2.564,2.015 -1.648,0.916 -2.381,2.198 -2.381,4.031 l 0.549,2.747 0.184,0.367 0,-0.367 c 0.367,-1.1 1.1,-2.016 2.383,-2.747 1.281,-0.733 2.748,-0.917 4.213,-0.55 1.281,0.365 2.197,1.281 2.564,2.564 0.549,1.832 -0.184,3.664 -2.016,5.679 l -0.365,0.55 0.549,-0.367 c 2.748,-0.916 4.396,-2.381 4.947,-4.029 l 0.365,-1.648 -0.184,-1.1 c 1.1,0.184 2.016,0.916 2.564,1.832 l 0.551,2.016 -0.367,2.564 -0.365,0.732 0.549,-0.732 c 1.648,-1.832 2.381,-3.481 2.381,-4.947 l 0,-0.732 -0.182,-0.549 0.365,-0.551 c 0.551,-0.731 1.283,-1.099 2.564,-1.099 1.832,0.183 3.115,0.733 3.664,2.015 0.551,1.1 0.367,2.382 -0.549,3.848 l -0.184,0.367 0.367,-0.184 c 2.564,-0.916 3.664,-2.382 3.664,-4.396 l -0.186,-0.551 c 1.65,0.551 2.566,2.016 2.932,3.848 l 0.184,0.732 0,-0.732 0.549,-3.297 c 0,-1.832 -0.916,-3.299 -2.562,-4.397 -0.916,-0.55 -2.566,-1.282 -5.131,-2.015 -2.748,-0.916 -4.58,-1.832 -5.496,-2.383 -1.098,-3.846 -3.848,-9.159 -8.242,-15.938 4.578,1.648 8.793,3.481 12.457,5.496 1.098,2.015 2.381,3.48 4.029,4.58 l 0.184,0 c 1.283,-2.015 1.832,-3.663 2.199,-4.946 0.365,0.732 0.73,1.648 0.73,2.747 l -0.549,3.115 0,0.184 0.732,-0.184 c 3.48,-1.466 5.68,-3.298 6.412,-5.496 l 0,-0.55 c 0.551,-2.198 -0.365,-4.58 -2.564,-6.777 0.551,-2.016 -0.549,-4.58 -3.48,-7.511 -2.016,-2.199 -4.029,-3.848 -6.045,-5.131 4.029,-2.014 7.693,-5.495 10.992,-10.441 l 8.242,-14.656 c 2.933,-5.312 6.781,-9.526 11.545,-13.006 z" />
      <path
         style="fill:#7b002b"
         inkscape:connector-curvature="0"
         id="path7727"
         d="m 165.902,54.604 c -2.748,3.664 -7.328,7.328 -13.74,10.992 l -18.139,9.892 c -7.326,4.397 -13.006,8.977 -17.402,13.923 -5.496,6.595 -9.527,14.29 -11.725,23.45 2.932,0.916 5.496,2.747 7.695,5.312 -1.832,-0.733 -3.848,-1.282 -6.047,-1.649 l -4.029,-0.732 c -1.1,-5.68 -3.664,-10.809 -7.329,-15.388 -2.932,-3.848 -7.145,-8.061 -12.64,-12.641 L 67.156,75.672 C 53.783,64.863 44.257,53.872 39.128,42.88 42.059,56.253 49.02,67.612 60.012,76.772 l 14.29,10.625 c 5.861,4.396 10.441,8.427 13.739,12.091 3.847,4.396 6.229,9.709 6.961,16.305 1.1,8.61 -2.198,15.389 -9.709,20.335 l -2.931,1.465 2.198,2.748 c 2.931,3.114 6.778,5.863 11.358,8.244 -5.313,-0.732 -9.893,-1.648 -13.557,-2.747 3.664,3.663 9.16,6.411 16.488,8.061 -2.382,0.183 -4.581,0.183 -6.779,-0.184 3.665,2.198 7.695,2.931 11.908,1.832 -0.732,-3.664 -2.016,-7.694 -4.396,-11.542 -2.381,0 -5.313,-0.55 -8.611,-2.015 l 15.39,-1.282 -6.963,-1.648 -0.365,-0.184 0.182,0 c 2.748,-2.382 5.496,-4.03 8.428,-5.13 -3.48,-1.649 -7.145,-2.931 -11.175,-3.48 l -0.366,-0.184 0.366,0 c 4.947,-2.564 8.794,-4.03 11.724,-4.03 l -4.213,-6.411 0.184,0 c 4.029,0.366 8.244,1.465 12.822,3.48 -0.549,-6.045 -0.182,-11.908 1.283,-17.587 2.199,-9.893 6.779,-17.77 13.74,-23.632 2.748,-2.565 6.045,-4.947 10.258,-7.512 l 9.895,-5.861 c 7.146,-4.582 11.726,-9.161 13.741,-13.925 z" />
      <path
         style="fill:#7b002b"
         inkscape:connector-curvature="0"
         id="path7729"
         d="m 164.07,67.794 c -2.566,2.199 -8.611,6.046 -18.504,11.726 -7.695,4.58 -13.191,8.977 -15.938,13.373 -2.199,3.114 -3.664,6.778 -4.764,10.991 2.932,-2.198 5.494,-3.479 7.693,-3.847 -1.1,7.327 -3.664,13.74 -7.693,18.87 3.297,-1.283 6.045,-3.664 8.242,-6.779 l 4.947,-9.344 c 2.199,-4.213 4.58,-7.511 7.145,-10.258 3.48,-3.847 8.244,-6.961 14.107,-9.709 -4.58,0.184 -10.26,1.465 -17.221,4.214 9.711,-5.497 17.039,-11.909 21.986,-19.237 z" />
      <path
         style="fill:#ffffff"
         inkscape:connector-curvature="0"
         id="path7731"
         d="m 103.248,129.716 c 2.564,0.549 5.496,1.832 8.793,4.029 -2.564,1.282 -4.58,2.565 -6.229,3.847 6.596,1.467 11.908,3.848 16.305,6.962 l -2.199,-5.313 c 1.832,0 3.664,0.367 5.68,1.1 l 2.016,-0.365 -1.467,-1.1 -2.197,0 c -0.916,-0.732 -1.1,-1.466 -0.367,-2.564 0.367,-0.367 0.732,-0.55 1.283,-0.733 -0.184,-1.099 -1.283,-2.197 -2.932,-3.297 1.834,0.915 3.115,2.015 3.848,2.931 l 1.281,2.932 c 0.551,0.732 1.1,0.916 1.832,0.549 0.549,-0.183 0.734,-0.732 0.549,-1.1 0.551,0.733 0.367,1.467 -0.365,2.016 l 3.113,0.367 c 0.367,-2.932 -1.832,-6.229 -6.961,-9.894 -4.945,-3.48 -10.076,-5.861 -15.57,-6.961 l 3.479,5.312 c -2.747,-0.55 -6.046,-0.001 -9.892,1.282 z" />
      <path
         style="fill:#c6b67f"
         inkscape:connector-curvature="0"
         id="path7733"
         d="m 125.23,137.043 -0.182,-0.732 -0.918,0.366 c -0.549,0.732 -0.363,1.282 0.184,1.648 l 0.551,0.366 c -0.367,-0.366 -0.367,-0.732 -0.184,-1.282 l 0.549,-0.366 z" />
      <path
         style="fill:#7b002b"
         inkscape:connector-curvature="0"
         id="path7735"
         d="m 125.414,137.592 -0.365,0.184 0,0.549 0.732,-0.182 -0.367,-0.551 z" />
      <path
         style="fill:#c6b67f"
         inkscape:connector-curvature="0"
         id="path7737"
         d="m 128.527,145.287 -1.098,-0.733 c 0.184,1.1 0.184,2.382 0,4.214 l 1.098,-3.481 z" />
      <path
         style="fill:#c6b67f"
         inkscape:connector-curvature="0"
         id="path7739"
         d="m 132.559,141.256 -6.412,0.367 -4.029,-0.916 c 1.465,3.663 3.113,6.595 4.945,8.793 -1.465,-2.931 -2.564,-5.496 -3.295,-7.511 3.295,0.916 5.676,2.015 6.959,3.48 1.283,1.465 1.648,2.749 1.465,4.03 1.467,-0.549 2.383,-1.465 2.932,-2.931 0.184,-0.732 0.184,-1.282 0,-2.016 -0.733,-1.464 -1.466,-2.563 -2.565,-3.296 z m 0.548,1.282 -3.479,-0.732 2.562,-0.183 0.917,0.915 z m -1.097,0 1.281,0.367 c 1.65,1.832 1.65,3.298 0.367,4.579 0.916,-1.647 0.365,-3.296 -1.648,-4.946 z" />
      <path
         inkscape:connector-curvature="0"
         id="path7741"
         d="m 129.629,141.806 3.478,0.732 -0.916,-0.915 -2.562,0.183 z" />
      <path
         style="fill:#ffffff"
         inkscape:connector-curvature="0"
         id="path7743"
         d="m 133.291,142.905 -1.281,-0.367 c 2.014,1.649 2.564,3.299 1.648,4.946 1.283,-1.281 1.283,-2.747 -0.367,-4.579 z" />
      <path
         style="fill:#c6b67f"
         inkscape:connector-curvature="0"
         id="path7745"
         d="m 117.537,159.21 -1.465,0.732 c 2.381,0.916 3.846,1.466 4.029,1.648 -0.549,0.367 -1.281,1.1 -1.832,2.199 1.283,-0.733 2.932,-0.916 4.764,-0.551 1.465,0.367 2.932,1.283 4.029,2.932 -0.182,-1.1 -0.549,-2.015 -1.098,-2.748 1.281,0.184 2.748,0.55 4.213,1.466 -0.549,-1.466 -2.932,-2.748 -7.51,-3.847 -2.565,-0.732 -4.214,-1.282 -5.13,-1.831 z m -12.824,-0.734 -2.197,0.185 3.48,2.382 -2.564,1.832 4.945,-0.367 c 2.016,0.916 3.299,2.382 3.848,4.764 0.367,-1.466 0.184,-2.748 -0.549,-3.848 1.463,0.184 3.297,1.1 5.311,2.748 -0.914,-2.015 -3.479,-3.847 -8.059,-5.679 -2.383,-1.1 -3.664,-1.833 -4.215,-2.017 z" />
      <path
         style="fill:#7b002b"
         inkscape:connector-curvature="0"
         id="path7747"
         d="m 112.225,153.714 -4.764,0 c 1.467,1.282 3.299,2.015 5.496,2.564 l 3.297,0.184 c -0.549,-2.198 -1.83,-4.58 -3.846,-7.146 l -7.877,-0.365 c 2.014,2.016 4.578,3.663 7.694,4.763 z M 68.074,90.512 C 52.685,80.801 41.328,70.176 34,58.085 38.58,73.29 48.105,87.213 62.578,99.671 55.25,96.19 45.908,90.328 34.732,81.901 c 8.793,13.19 17.771,22.533 27.48,28.211 -4.396,-0.916 -8.794,-2.748 -13.375,-5.129 1.283,2.932 3.482,6.045 6.23,9.16 3.114,3.297 6.412,5.862 9.893,7.877 8.609,5.312 15.572,4.947 20.517,-0.732 3.482,-4.213 3.482,-9.343 -0.183,-15.023 -3.297,-5.495 -8.977,-10.624 -17.22,-15.753 z" />
      <path
         style="fill:#ffffff"
         inkscape:connector-curvature="0"
         id="path7749"
         d="m 83.829,160.858 c -8.794,-1.466 -14.29,-5.496 -16.671,-11.907 -4.763,3.113 -9.16,4.763 -13.74,5.129 8.427,8.061 18.686,10.259 30.411,6.778 z" />
    </g>
    <rect
       style="fill:#6f0f3b;fill-opacity:1;stroke:none;stroke-width:0.2727707;stroke-opacity:1"
       id="rect5938-0"
       width="75.791"
       height="11.245"
       x="6.7370453"
       y="283.672"
       ry="0" />
  </g>
</svg>
